<mxfile host="app.diagrams.net" modified="2023-09-26T01:35:24.659Z" agent="Mozilla/5.0 (Windows NT 10.0; Win64; x64) AppleWebKit/537.36 (KHTML, like Gecko) Chrome/117.0.0.0 Safari/537.36 Edg/117.0.2045.36" etag="NW5g0xlmaChuwMAviTcj" version="21.8.2" type="device">
  <diagram name="PÃ¡gina-1" id="ftojBqNl534koxPkQxBM">
    <mxGraphModel dx="1189" dy="751" grid="1" gridSize="10" guides="1" tooltips="1" connect="1" arrows="1" fold="1" page="1" pageScale="1" pageWidth="827" pageHeight="1169" math="0" shadow="0">
      <root>
        <mxCell id="0" />
        <mxCell id="1" parent="0" />
        <mxCell id="ZNlzO_39Yd2g7yUhMewr-13" style="edgeStyle=orthogonalEdgeStyle;rounded=0;orthogonalLoop=1;jettySize=auto;html=1;entryX=0.5;entryY=0;entryDx=0;entryDy=0;" parent="1" source="ZNlzO_39Yd2g7yUhMewr-2" target="ZNlzO_39Yd2g7yUhMewr-9" edge="1">
          <mxGeometry relative="1" as="geometry" />
        </mxCell>
        <mxCell id="ZNlzO_39Yd2g7yUhMewr-14" style="edgeStyle=orthogonalEdgeStyle;rounded=0;orthogonalLoop=1;jettySize=auto;html=1;exitX=0.5;exitY=1;exitDx=0;exitDy=0;entryX=1;entryY=0.5;entryDx=0;entryDy=0;dashed=1;curved=1;" parent="1" source="ZNlzO_39Yd2g7yUhMewr-2" target="ZNlzO_39Yd2g7yUhMewr-7" edge="1">
          <mxGeometry relative="1" as="geometry">
            <mxPoint x="290" y="155" as="targetPoint" />
            <Array as="points">
              <mxPoint x="390" y="195" />
              <mxPoint x="298" y="195" />
              <mxPoint x="298" y="170" />
            </Array>
          </mxGeometry>
        </mxCell>
        <mxCell id="ZNlzO_39Yd2g7yUhMewr-2" value="9,923 logs&lt;br&gt;80,084 Encounters" style="rounded=0;whiteSpace=wrap;html=1;" parent="1" vertex="1">
          <mxGeometry x="335" y="135" width="110" height="50" as="geometry" />
        </mxCell>
        <mxCell id="ZNlzO_39Yd2g7yUhMewr-12" style="edgeStyle=orthogonalEdgeStyle;rounded=0;orthogonalLoop=1;jettySize=auto;html=1;entryX=0.5;entryY=0;entryDx=0;entryDy=0;" parent="1" source="ZNlzO_39Yd2g7yUhMewr-6" target="ZNlzO_39Yd2g7yUhMewr-2" edge="1">
          <mxGeometry relative="1" as="geometry" />
        </mxCell>
        <mxCell id="ZNlzO_39Yd2g7yUhMewr-6" value="9,962 logs" style="rounded=0;whiteSpace=wrap;html=1;" parent="1" vertex="1">
          <mxGeometry x="335" y="65" width="110" height="50" as="geometry" />
        </mxCell>
        <mxCell id="ZNlzO_39Yd2g7yUhMewr-7" value="508 logs&lt;br&gt;66,517 Encounters" style="rounded=0;whiteSpace=wrap;html=1;dashed=1;" parent="1" vertex="1">
          <mxGeometry x="150" y="145" width="110" height="50" as="geometry" />
        </mxCell>
        <mxCell id="ZNlzO_39Yd2g7yUhMewr-19" style="edgeStyle=orthogonalEdgeStyle;rounded=0;orthogonalLoop=1;jettySize=auto;html=1;entryX=1;entryY=0.5;entryDx=0;entryDy=0;exitX=0.5;exitY=1;exitDx=0;exitDy=0;dashed=1;curved=1;" parent="1" source="ZNlzO_39Yd2g7yUhMewr-9" target="ZNlzO_39Yd2g7yUhMewr-11" edge="1">
          <mxGeometry relative="1" as="geometry">
            <Array as="points">
              <mxPoint x="390" y="265" />
              <mxPoint x="298" y="265" />
              <mxPoint x="298" y="240" />
            </Array>
          </mxGeometry>
        </mxCell>
        <mxCell id="ZNlzO_39Yd2g7yUhMewr-20" style="edgeStyle=orthogonalEdgeStyle;rounded=0;orthogonalLoop=1;jettySize=auto;html=1;entryX=0.5;entryY=0;entryDx=0;entryDy=0;" parent="1" source="ZNlzO_39Yd2g7yUhMewr-9" target="ZNlzO_39Yd2g7yUhMewr-10" edge="1">
          <mxGeometry relative="1" as="geometry" />
        </mxCell>
        <mxCell id="ZNlzO_39Yd2g7yUhMewr-9" value="9,415 logs&lt;br style=&quot;border-color: var(--border-color);&quot;&gt;13,567 Encounters" style="rounded=0;whiteSpace=wrap;html=1;" parent="1" vertex="1">
          <mxGeometry x="335" y="205" width="110" height="50" as="geometry" />
        </mxCell>
        <mxCell id="ZNlzO_39Yd2g7yUhMewr-23" style="edgeStyle=orthogonalEdgeStyle;rounded=0;orthogonalLoop=1;jettySize=auto;html=1;entryX=0.5;entryY=0;entryDx=0;entryDy=0;" parent="1" source="ZNlzO_39Yd2g7yUhMewr-10" target="ZNlzO_39Yd2g7yUhMewr-21" edge="1">
          <mxGeometry relative="1" as="geometry">
            <Array as="points">
              <mxPoint x="390" y="335" />
              <mxPoint x="234" y="335" />
            </Array>
          </mxGeometry>
        </mxCell>
        <mxCell id="ZNlzO_39Yd2g7yUhMewr-24" style="edgeStyle=orthogonalEdgeStyle;rounded=0;orthogonalLoop=1;jettySize=auto;html=1;entryX=0.5;entryY=0;entryDx=0;entryDy=0;" parent="1" source="ZNlzO_39Yd2g7yUhMewr-10" target="ZNlzO_39Yd2g7yUhMewr-22" edge="1">
          <mxGeometry relative="1" as="geometry">
            <Array as="points">
              <mxPoint x="390" y="335" />
              <mxPoint x="560" y="335" />
            </Array>
          </mxGeometry>
        </mxCell>
        <mxCell id="ZNlzO_39Yd2g7yUhMewr-10" value="7,261 logs&lt;br style=&quot;border-color: var(--border-color);&quot;&gt;10,274 Encounters" style="rounded=0;whiteSpace=wrap;html=1;" parent="1" vertex="1">
          <mxGeometry x="335" y="275" width="110" height="50" as="geometry" />
        </mxCell>
        <mxCell id="ZNlzO_39Yd2g7yUhMewr-11" value="2,054 logs&lt;br&gt;3,147 Encounters" style="rounded=0;whiteSpace=wrap;html=1;dashed=1;" parent="1" vertex="1">
          <mxGeometry x="150" y="215" width="110" height="50" as="geometry" />
        </mxCell>
        <mxCell id="ZNlzO_39Yd2g7yUhMewr-15" value="Log IDs for ToC" style="text;html=1;align=center;verticalAlign=middle;resizable=0;points=[];autosize=1;strokeColor=none;fillColor=none;" parent="1" vertex="1">
          <mxGeometry x="445" y="75" width="110" height="30" as="geometry" />
        </mxCell>
        <mxCell id="ZNlzO_39Yd2g7yUhMewr-16" value="Valid log IDs for ToC" style="text;html=1;align=center;verticalAlign=middle;resizable=0;points=[];autosize=1;strokeColor=none;fillColor=none;" parent="1" vertex="1">
          <mxGeometry x="445" y="145" width="130" height="30" as="geometry" />
        </mxCell>
        <mxCell id="ZNlzO_39Yd2g7yUhMewr-17" value="Valid Twin Valkyr Encounters" style="text;html=1;align=center;verticalAlign=middle;resizable=0;points=[];autosize=1;strokeColor=none;fillColor=none;" parent="1" vertex="1">
          <mxGeometry x="445" y="215" width="180" height="30" as="geometry" />
        </mxCell>
        <mxCell id="ZNlzO_39Yd2g7yUhMewr-18" value="Non-duplicated logs" style="text;html=1;align=center;verticalAlign=middle;resizable=0;points=[];autosize=1;strokeColor=none;fillColor=none;" parent="1" vertex="1">
          <mxGeometry x="445" y="285" width="130" height="30" as="geometry" />
        </mxCell>
        <mxCell id="ZNlzO_39Yd2g7yUhMewr-32" style="edgeStyle=orthogonalEdgeStyle;rounded=0;orthogonalLoop=1;jettySize=auto;html=1;entryX=0.5;entryY=0;entryDx=0;entryDy=0;" parent="1" source="ZNlzO_39Yd2g7yUhMewr-21" target="ZNlzO_39Yd2g7yUhMewr-27" edge="1">
          <mxGeometry relative="1" as="geometry">
            <Array as="points">
              <mxPoint x="234" y="415" />
              <mxPoint x="164" y="415" />
            </Array>
          </mxGeometry>
        </mxCell>
        <mxCell id="ZNlzO_39Yd2g7yUhMewr-33" style="edgeStyle=orthogonalEdgeStyle;rounded=0;orthogonalLoop=1;jettySize=auto;html=1;entryX=0.5;entryY=0;entryDx=0;entryDy=0;" parent="1" source="ZNlzO_39Yd2g7yUhMewr-21" target="ZNlzO_39Yd2g7yUhMewr-28" edge="1">
          <mxGeometry relative="1" as="geometry">
            <Array as="points">
              <mxPoint x="234" y="415" />
              <mxPoint x="304" y="415" />
            </Array>
          </mxGeometry>
        </mxCell>
        <mxCell id="ZNlzO_39Yd2g7yUhMewr-21" value="2,505 logs&lt;br style=&quot;border-color: var(--border-color);&quot;&gt;2,989 Encounters" style="rounded=0;whiteSpace=wrap;html=1;" parent="1" vertex="1">
          <mxGeometry x="179" y="355" width="110" height="50" as="geometry" />
        </mxCell>
        <mxCell id="ZNlzO_39Yd2g7yUhMewr-22" value="5,065 logs&lt;br style=&quot;border-color: var(--border-color);&quot;&gt;7,285 Encounters" style="rounded=0;whiteSpace=wrap;html=1;" parent="1" vertex="1">
          <mxGeometry x="505" y="355" width="110" height="50" as="geometry" />
        </mxCell>
        <mxCell id="ZNlzO_39Yd2g7yUhMewr-25" value="25-man" style="text;html=1;align=center;verticalAlign=middle;resizable=0;points=[];autosize=1;strokeColor=none;fillColor=none;" parent="1" vertex="1">
          <mxGeometry x="615" y="365" width="60" height="30" as="geometry" />
        </mxCell>
        <mxCell id="ZNlzO_39Yd2g7yUhMewr-26" value="10-man" style="text;html=1;align=center;verticalAlign=middle;resizable=0;points=[];autosize=1;strokeColor=none;fillColor=none;" parent="1" vertex="1">
          <mxGeometry x="119" y="365" width="60" height="30" as="geometry" />
        </mxCell>
        <mxCell id="ZNlzO_39Yd2g7yUhMewr-27" value="132 logs&lt;br style=&quot;border-color: var(--border-color);&quot;&gt;142 Encounters" style="rounded=0;whiteSpace=wrap;html=1;" parent="1" vertex="1">
          <mxGeometry x="109" y="425" width="110" height="50" as="geometry" />
        </mxCell>
        <mxCell id="ZNlzO_39Yd2g7yUhMewr-28" value="2,395 logs&lt;br style=&quot;border-color: var(--border-color);&quot;&gt;2,847 Encounters" style="rounded=0;whiteSpace=wrap;html=1;" parent="1" vertex="1">
          <mxGeometry x="249" y="425" width="110" height="50" as="geometry" />
        </mxCell>
        <mxCell id="ZNlzO_39Yd2g7yUhMewr-29" value="545 logs&lt;br style=&quot;border-color: var(--border-color);&quot;&gt;581 Encounters" style="rounded=0;whiteSpace=wrap;html=1;" parent="1" vertex="1">
          <mxGeometry x="435" y="425" width="110" height="50" as="geometry" />
        </mxCell>
        <mxCell id="ZNlzO_39Yd2g7yUhMewr-30" value="4,634 logs&lt;br style=&quot;border-color: var(--border-color);&quot;&gt;6,704 Encounters" style="rounded=0;whiteSpace=wrap;html=1;" parent="1" vertex="1">
          <mxGeometry x="575" y="425" width="110" height="50" as="geometry" />
        </mxCell>
        <mxCell id="ZNlzO_39Yd2g7yUhMewr-34" style="edgeStyle=orthogonalEdgeStyle;rounded=0;orthogonalLoop=1;jettySize=auto;html=1;entryX=0.5;entryY=0;entryDx=0;entryDy=0;" parent="1" edge="1">
          <mxGeometry relative="1" as="geometry">
            <mxPoint x="559.99" y="405" as="sourcePoint" />
            <mxPoint x="489.99" y="425" as="targetPoint" />
            <Array as="points">
              <mxPoint x="559.99" y="415" />
              <mxPoint x="489.99" y="415" />
            </Array>
          </mxGeometry>
        </mxCell>
        <mxCell id="ZNlzO_39Yd2g7yUhMewr-35" style="edgeStyle=orthogonalEdgeStyle;rounded=0;orthogonalLoop=1;jettySize=auto;html=1;entryX=0.5;entryY=0;entryDx=0;entryDy=0;" parent="1" edge="1">
          <mxGeometry relative="1" as="geometry">
            <mxPoint x="559.99" y="405" as="sourcePoint" />
            <mxPoint x="629.99" y="425" as="targetPoint" />
            <Array as="points">
              <mxPoint x="559.99" y="415" />
              <mxPoint x="629.99" y="415" />
            </Array>
          </mxGeometry>
        </mxCell>
        <mxCell id="ZNlzO_39Yd2g7yUhMewr-36" value="Normal" style="text;html=1;align=center;verticalAlign=middle;resizable=0;points=[];autosize=1;strokeColor=none;fillColor=none;" parent="1" vertex="1">
          <mxGeometry x="134" y="475" width="60" height="30" as="geometry" />
        </mxCell>
        <mxCell id="ZNlzO_39Yd2g7yUhMewr-37" value="Heroic" style="text;html=1;align=center;verticalAlign=middle;resizable=0;points=[];autosize=1;strokeColor=none;fillColor=none;" parent="1" vertex="1">
          <mxGeometry x="600" y="475" width="60" height="30" as="geometry" />
        </mxCell>
        <mxCell id="ZNlzO_39Yd2g7yUhMewr-38" value="Heroic" style="text;html=1;align=center;verticalAlign=middle;resizable=0;points=[];autosize=1;strokeColor=none;fillColor=none;" parent="1" vertex="1">
          <mxGeometry x="274" y="475" width="60" height="30" as="geometry" />
        </mxCell>
        <mxCell id="ZNlzO_39Yd2g7yUhMewr-39" value="Normal" style="text;html=1;align=center;verticalAlign=middle;resizable=0;points=[];autosize=1;strokeColor=none;fillColor=none;" parent="1" vertex="1">
          <mxGeometry x="460" y="475" width="60" height="30" as="geometry" />
        </mxCell>
        <mxCell id="W-QhxvlR7g6o5nvrkT6P-4" style="edgeStyle=orthogonalEdgeStyle;rounded=0;orthogonalLoop=1;jettySize=auto;html=1;exitX=0.5;exitY=1;exitDx=0;exitDy=0;entryX=1;entryY=0.5;entryDx=0;entryDy=0;dashed=1;curved=1;" parent="1" target="W-QhxvlR7g6o5nvrkT6P-5" edge="1">
          <mxGeometry relative="1" as="geometry">
            <mxPoint x="290" y="85" as="targetPoint" />
            <Array as="points">
              <mxPoint x="390" y="125" />
              <mxPoint x="298" y="125" />
              <mxPoint x="298" y="100" />
            </Array>
            <mxPoint x="390" y="115" as="sourcePoint" />
          </mxGeometry>
        </mxCell>
        <mxCell id="W-QhxvlR7g6o5nvrkT6P-5" value="39 logs" style="rounded=0;whiteSpace=wrap;html=1;dashed=1;" parent="1" vertex="1">
          <mxGeometry x="150" y="75" width="110" height="50" as="geometry" />
        </mxCell>
        <mxCell id="W-QhxvlR7g6o5nvrkT6P-6" value="Invalid log IDs" style="text;html=1;align=center;verticalAlign=middle;resizable=0;points=[];autosize=1;strokeColor=none;fillColor=none;" parent="1" vertex="1">
          <mxGeometry x="50" y="85" width="100" height="30" as="geometry" />
        </mxCell>
        <mxCell id="W-QhxvlR7g6o5nvrkT6P-7" value="Non-Valkyr Encounters&lt;br&gt;Wipes &amp;lt;50s" style="text;html=1;align=center;verticalAlign=middle;resizable=0;points=[];autosize=1;strokeColor=none;fillColor=none;" parent="1" vertex="1">
          <mxGeometry y="150" width="150" height="40" as="geometry" />
        </mxCell>
        <mxCell id="W-QhxvlR7g6o5nvrkT6P-8" value="Duplicated encounters" style="text;html=1;align=center;verticalAlign=middle;resizable=0;points=[];autosize=1;strokeColor=none;fillColor=none;" parent="1" vertex="1">
          <mxGeometry x="10" y="225" width="140" height="30" as="geometry" />
        </mxCell>
        <mxCell id="DSwS3itT0C9dHSm464ZH-9" style="edgeStyle=orthogonalEdgeStyle;rounded=0;orthogonalLoop=1;jettySize=auto;html=1;entryX=0.5;entryY=0;entryDx=0;entryDy=0;" edge="1" parent="1" source="DSwS3itT0C9dHSm464ZH-5" target="ZNlzO_39Yd2g7yUhMewr-6">
          <mxGeometry relative="1" as="geometry">
            <Array as="points">
              <mxPoint x="272" y="45" />
              <mxPoint x="390" y="45" />
            </Array>
          </mxGeometry>
        </mxCell>
        <mxCell id="DSwS3itT0C9dHSm464ZH-5" value="22/09" style="ellipse;whiteSpace=wrap;html=1;" vertex="1" parent="1">
          <mxGeometry x="240" width="64" height="40" as="geometry" />
        </mxCell>
        <mxCell id="DSwS3itT0C9dHSm464ZH-10" style="edgeStyle=orthogonalEdgeStyle;rounded=0;orthogonalLoop=1;jettySize=auto;html=1;entryX=0.5;entryY=0;entryDx=0;entryDy=0;" edge="1" parent="1" source="DSwS3itT0C9dHSm464ZH-6" target="ZNlzO_39Yd2g7yUhMewr-6">
          <mxGeometry relative="1" as="geometry">
            <Array as="points">
              <mxPoint x="348" y="45" />
              <mxPoint x="390" y="45" />
            </Array>
          </mxGeometry>
        </mxCell>
        <mxCell id="DSwS3itT0C9dHSm464ZH-6" value="21/09" style="ellipse;whiteSpace=wrap;html=1;" vertex="1" parent="1">
          <mxGeometry x="316" width="64" height="40" as="geometry" />
        </mxCell>
        <mxCell id="DSwS3itT0C9dHSm464ZH-11" style="edgeStyle=orthogonalEdgeStyle;rounded=0;orthogonalLoop=1;jettySize=auto;html=1;entryX=0.5;entryY=0;entryDx=0;entryDy=0;" edge="1" parent="1" source="DSwS3itT0C9dHSm464ZH-7" target="ZNlzO_39Yd2g7yUhMewr-6">
          <mxGeometry relative="1" as="geometry">
            <Array as="points">
              <mxPoint x="428" y="45" />
              <mxPoint x="390" y="45" />
            </Array>
          </mxGeometry>
        </mxCell>
        <mxCell id="DSwS3itT0C9dHSm464ZH-7" value="20/09" style="ellipse;whiteSpace=wrap;html=1;" vertex="1" parent="1">
          <mxGeometry x="396" width="64" height="40" as="geometry" />
        </mxCell>
        <mxCell id="DSwS3itT0C9dHSm464ZH-12" style="edgeStyle=orthogonalEdgeStyle;rounded=0;orthogonalLoop=1;jettySize=auto;html=1;entryX=0.5;entryY=0;entryDx=0;entryDy=0;" edge="1" parent="1" source="DSwS3itT0C9dHSm464ZH-8" target="ZNlzO_39Yd2g7yUhMewr-6">
          <mxGeometry relative="1" as="geometry">
            <Array as="points">
              <mxPoint x="508" y="45" />
              <mxPoint x="390" y="45" />
            </Array>
          </mxGeometry>
        </mxCell>
        <mxCell id="DSwS3itT0C9dHSm464ZH-8" value="29/08" style="ellipse;whiteSpace=wrap;html=1;" vertex="1" parent="1">
          <mxGeometry x="476" width="64" height="40" as="geometry" />
        </mxCell>
      </root>
    </mxGraphModel>
  </diagram>
</mxfile>
